<?xml version="1.0" standalone="no"?>
<!DOCTYPE svg PUBLIC "-//W3C//DTD SVG 1.1//EN" "http://www.w3.org/Graphics/SVG/1.1/DTD/svg11.dtd" >
<svg xmlns="http://www.w3.org/2000/svg">
<metadata>
<json>
<![CDATA[
{
	"fontFamily": "icomoon",
	"majorVersion": 1,
	"minorVersion": 0,
	"version": "Version 1.0",
	"fontId": "icomoon",
	"psName": "icomoon",
	"subFamily": "Regular",
	"fullName": "icomoon",
	"description": "Font generated by IcoMoon."
}
]]>
</json>
</metadata>
<defs>
<font id="icomoon" horiz-adv-x="1024">
<font-face units-per-em="1024" ascent="804.864" descent="-219.136" />
<missing-glyph horiz-adv-x="1024" />
<glyph unicode="&#x20;" horiz-adv-x="0" d="" />
<glyph unicode="&#x41;" glyph-name="uni41" d="M17.008 401.952q0 74.894 28.272 147.308t84.814 129.948q57.534 57.534 129.948 85.806t147.308 28.272 147.308-28.272 129.948-85.806q49.598-49.598 77.374-111.1t34.718-126.972q1.984-20.832 1.984-40.67 0-44.638-9.92-88.286-14.88-65.47-51.582-122.012l248.984-247.992q21.824-21.824 21.824-52.078t-21.824-53.070l-12.896-12.896q-22.816-21.824-53.070-21.824t-52.078 21.824l-248.984 247.992q-55.55-35.71-121.020-50.59-45.63-9.92-91.262-9.92l-39.678 0.992q-65.47 5.952-126.476 34.222t-110.604 77.87q-56.542 57.534-84.814 129.948t-28.272 147.308zM137.036 401.952q0-52.078 19.84-102.172t59.518-89.774 89.278-59.518 101.676-19.84 102.172 19.84 89.774 59.518 59.022 89.774 19.344 102.172-19.344 102.172-59.022 89.774-89.774 59.022-102.172 19.344-101.676-19.344-89.278-59.022-59.518-89.774-19.84-102.172z" />
<glyph unicode="&#x42;" glyph-name="uni42" horiz-adv-x="1078" d="M8.43-163.071v463.673q0 24.192 17.136 41.327t41.327 17.136q25.2 0 36.287-13.608t11.088-37.799v-475.768q0-24.192-11.088-38.807t-36.287-14.616q-24.192 0-41.327 17.136t-17.136 41.327zM326.953-168.111v900.13q0 24.192 15.12 38.807t39.311 14.616q25.2 0 38.303-14.616t13.104-38.807v-900.13q0-24.192-13.104-38.807t-38.303-14.616q-24.192 0-39.311 14.616t-15.12 38.807zM645.476-168.111v635.030q0 47.375 50.399 47.375 25.2 0 40.319-11.592t15.12-35.783v-635.030q0-24.192-15.12-38.807t-40.319-14.616q-24.192 0-37.295 14.616t-13.104 38.807zM962.991-168.111v369.93q0 12.096 3.024 26.208t8.568 25.704 14.616 19.656 21.168 8.064q24.192 0 41.831-17.136t17.64-41.327v-386.058q0-24.192-17.64-41.327t-41.831-17.136-35.783 14.616-11.592 38.807z" />
<glyph unicode="&#x43;" glyph-name="uni43" horiz-adv-x="1467" d="M366.592 526.592q0 15.36 4.608 28.16t13.824 20.992 21.504 8.192h652.288q11.264 0 20.48-7.68t14.336-19.968q6.144-13.312 6.144-30.72 0-14.336-6.144-29.696-4.096-9.216-27.648-37.376t-57.856-67.072-73.728-83.456-74.24-85.504-60.416-73.216-31.744-47.616-15.36-22.528-19.456-7.168-19.968 7.68-15.872 22.016q-4.096 10.24-28.672 40.448t-58.88 70.144-74.24 84.48-74.24 84.992-59.392 72.192-30.208 44.032q-5.12 13.312-5.12 28.672z" />
<glyph unicode="&#x44;" glyph-name="uni44" horiz-adv-x="640" d="M0-133.888v896h64.512v63.488h512v-63.488h63.488v-896h-63.488v-63.488h-512v63.488h-64.512zM64.512-5.888h512v703.488h-512v-703.488zM256-69.376v-64.512h128v64.512h-128z" />
<glyph unicode="&#x45;" glyph-name="uni45" horiz-adv-x="901" d="M14.092-111.892q2.976 91.262 10.912 159.21t20.832 118.044 29.76 83.326 37.198 55.054 43.646 33.726 49.102 19.84q44.638-51.582 107.628-81.342t137.388-29.76 137.388 29.76 107.628 81.342q38.686-10.912 71.422-34.222t58.030-74.398 41.662-137.388 20.336-223.192q0-17.856-6.448-33.726t-18.352-27.28-27.776-18.352-33.726-6.944h-700.33q-36.702 0-61.502 25.296t-24.8 61.006zM209.51 558.678q0 48.606 18.848 91.262t51.582 74.398 76.878 50.094 93.74 18.352 93.74-18.352 76.878-50.094 51.582-74.398 18.848-91.262-18.848-91.262-51.582-74.398-76.878-50.094-93.74-18.352-93.74 18.352-76.878 50.094-51.582 74.398-18.848 91.262z" />
<glyph unicode="&#x46;" glyph-name="uni46" d="M24.024 296.4q0 67.341 17.568 129.802t49.285 116.626 76.125 98.57 98.57 76.125 116.626 49.285 129.802 17.568q100.522 0 189.823-38.549t155.175-104.426 104.426-155.175 38.549-189.823q0-101.498-38.549-189.823t-104.426-154.687-155.175-104.426-189.823-38.061q-101.498 0-190.311 38.061t-154.687 104.426-104.426 154.687-38.549 189.823zM268.012 353.981l114.186-127.85-21.472-173.719 151.273 74.173 151.273-74.173-21.472 173.719 114.186 127.85-163.959 33.181-80.029 153.223-80.029-153.223z" />
<glyph unicode="&#x47;" glyph-name="uni47" horiz-adv-x="1533" d="M154.5-194.558v892.973q97.873-28.253 194.739-28.253h10.090q101.909 2.018 203.82 18.163t203.316 39.855 203.316 39.855 203.82 17.154q5.045 1.009 10.090 1.009 96.864 0 194.739-27.244v-892.973q-98.882 27.244-197.766 27.244h-7.063q-101.909-1.009-203.82-17.658t-203.316-39.855-203.316-39.855-203.82-17.658h-7.063q-98.882 0-197.766 27.244zM211.004 93.009q50.45-26.235 87.28-87.28t46.918-144.793q105.945 1.009 211.388 20.685t209.875 43.387 209.875 43.387 211.388 21.694q4.036 39.351 16.145 74.667t29.262 62.054 39.855 42.378 48.936 17.658v283.531q-50.45 26.235-87.28 87.28t-46.918 145.802q-105.945-1.009-211.388-21.19t-209.875-43.891-209.875-43.891-211.388-21.19q-5.045-39.351-16.649-74.667t-29.262-62.054-40.36-42.882-47.927-17.154v-283.531zM607.545 307.929q35.314 7.063 59.531 12.613t59.531 14.631q5.045 28.253 9.586 50.45t8.577 43.387 8.072 43.891 10.090 50.955q1.009 5.045 3.027 5.045l1.009 1.009q2.018 0 3.027-4.036 5.045-26.235 9.586-46.414t8.577-39.351 8.577-39.855 9.586-45.909q35.314 9.081 59.531 14.631t59.531 12.613q2.018 1.009 3.027-3.027v-3.027t-1.009-4.036q-14.127-20.181-25.731-35.819t-22.199-30.775-22.199-30.775-25.731-35.819q5.045-26.235 9.586-46.414t8.577-39.351 8.577-39.855 9.586-45.909q1.009-4.036-1.514-7.063t-4.541-1.009q-14.127 13.118-25.731 23.712t-22.199 20.685-22.199 20.181-25.731 23.208q-14.127-20.181-25.226-36.323t-22.199-31.279-22.199-30.775-25.226-35.819q-1.009-2.018-3.027-2.018h-1.009q-3.027 2.018-2.018 7.063 5.045 28.253 9.586 50.45t8.577 43.387 8.577 43.891 9.586 50.955q-14.127 13.118-25.731 23.712t-22.199 20.685-22.199 20.685-25.731 24.722q-1.009 1.009-1.009 4.036 0 6.054 3.027 8.072z" />
<glyph unicode="&#x48;" glyph-name="uni48" horiz-adv-x="955" d="M7.468 251.968q0 57.455 13.104 109.87 13.104 53.423 37.295 102.814 24.192 48.383 60.479 90.719 34.271 42.335 79.631 76.607 18.144 13.104 37.295 13.104 6.048 0 12.096-1.008 27.216-4.032 44.351-26.208 13.104-18.144 13.104-38.303 0-5.040-1.008-11.088-4.032-28.224-26.208-44.351-65.519-49.391-101.806-119.95-35.279-72.575-35.279-152.206 0-68.543 26.208-132.046 27.216-62.495 72.575-107.854 23.184-23.184 49.895-40.823t56.951-31.751q61.487-27.216 131.038-27.216 68.543 0 131.038 27.216 31.248 14.112 57.455 31.751t49.391 40.823q46.367 45.359 72.575 107.854 27.216 61.487 27.216 132.046 0 81.647-38.303 156.238-38.303 72.575-105.838 120.958-22.176 14.112-28.224 43.343-1.008 6.048-1.008 11.088 0 21.168 12.096 39.311 17.136 23.184 43.343 27.216 7.056 1.008 13.104 1.008 21.168 0 37.295-12.096 23.184-17.136 44.351-36.287t40.319-40.319q37.295-43.343 62.495-92.735 26.208-48.383 40.319-105.838 7.056-27.216 10.080-55.439t3.024-56.447q0-100.798-37.295-185.469-35.279-83.663-100.798-149.182-64.511-64.511-149.182-101.806t-183.453-37.295q-97.774 0-182.445 37.295-85.679 38.303-149.182 101.806-63.503 62.495-101.806 149.182-36.287 85.679-36.287 185.469zM410.662 315.471v402.186q0 27.216 20.16 47.375t46.367 20.16q28.224 0 48.383-20.16 19.152-21.168 19.152-47.375v-402.186q0-26.208-19.152-47.375-20.16-20.16-48.383-20.16-26.208 0-46.367 20.16t-20.16 47.375z" />
<glyph unicode="&#x49;" glyph-name="uni49" horiz-adv-x="1126" d="M17.612 417.082q0 8.928 0.496 18.352t1.488 18.352q-0.992 7.936-1.488 15.872t-0.496 15.872q0 63.486 23.808 119.532t65.47 97.708 97.708 65.966 119.532 24.304q73.406 0 134.908-30.751t104.156-83.326q42.654 52.574 104.156 83.326t134.908 30.751q63.486 0 119.036-24.304t97.212-65.966 65.966-97.708 24.304-119.532q0-7.936-0.496-15.872t-1.488-15.872q0.992-8.928 1.488-18.352t0.496-18.352q-7.936-89.278-68.446-190.458-25.792-43.646-64.974-93.245t-96.716-103.66-135.404-111.596-180.042-116.060q-102.172 58.526-180.042 116.060t-135.404 111.596-96.716 103.66-64.974 93.245q-60.51 101.18-68.446 190.458z" />
<glyph unicode="&#x4a;" glyph-name="uni4A" horiz-adv-x="1672" d="M14.192 310.052q3.024 23.18 12.095 44.346 5.040 11.087 12.599 21.164t18.14 20.66 24.188 23.18 30.739 29.732 48.88 46.866 69.542 62.487 78.109 62.991 73.574 48.376q4.032 2.016 31.243 18.644t72.566 37.795 105.321 40.819 130.517 27.716q47.368 5.040 98.77 5.040 26.204 0 53.416-1.008 82.643-4.032 173.854-30.739t191.492-79.115 206.105-141.1q56.439-50.392 99.778-91.714 18.14-18.14 36.283-35.275t31.747-31.747 22.676-25.196 9.071-14.615q12.095-24.188 13.103-47.368 1.008-8.063 1.008-16.125 0-14.111-2.016-27.212-4.032-22.172-12.095-41.323-17.133-22.172-42.33-50.896t-53.416-58.455-58.455-57.447-57.447-48.88q-28.22-21.164-76.598-55.935t-122.454-68.534-177.885-58.455-241.884-24.692q-103.809 8.063-214.672 42.33-47.368 15.119-100.786 36.787t-109.353 52.408-112.879 72.062-112.375 94.738l-124.974 120.942q-18.14 26.204-22.172 51.4-4.032 17.133-4.032 32.251 0 7.055 1.008 13.103zM458.655 296.95q0-75.59 29.732-141.1t81.131-114.894 119.934-77.606 146.138-28.22q78.612 0 147.146 28.22t119.934 77.606 81.131 114.894 29.732 141.1-29.732 141.602-81.131 114.894-119.934 77.606-147.146 28.724q-77.606 0-146.138-28.724t-119.934-77.606-81.131-114.894-29.732-141.602zM610.84 296.95q0 42.33 17.133 82.643 17.133 39.307 49.384 70.55 15.119 15.119 33.763 26.708t38.803 19.652q42.33 17.133 85.667 17.133 44.346 0 86.675-17.133 41.323-17.133 72.566-46.362t48.376-70.55q17.133-40.315 17.133-82.643t-17.133-82.643q-17.133-41.323-48.376-70.55t-72.566-46.362q-42.33-17.133-86.675-17.133-43.338 0-85.667 17.133-20.156 8.063-38.803 19.652t-33.763 26.708q-32.251 31.243-49.384 70.55-17.133 40.315-17.133 82.643z" />
<glyph unicode="&#x4b;" glyph-name="uni4B" horiz-adv-x="866" d="M0 380.544q0 87.040 33.792 162.816t92.672 132.608 137.728 89.6 168.96 32.768 168.96-32.768 137.728-89.6 92.672-132.608 33.792-162.816q-6.144-69.632-54.272-161.792-20.48-38.912-51.712-87.040t-76.8-103.936-107.52-118.784-142.848-133.632q-81.92 70.656-143.36 133.632t-107.008 118.784-76.8 103.936-51.712 87.040q-48.128 92.16-54.272 161.792zM260.096 397.952q0-36.864 13.824-69.12t37.376-56.832 54.784-38.4 67.072-13.824 67.584 13.824 55.296 38.4 36.864 56.832 13.312 69.12-13.312 69.12-36.864 56.832-55.296 38.4-67.584 13.824-67.072-13.824-54.784-38.4-37.376-56.832-13.824-69.12z" />
<glyph unicode="&#x4c;" glyph-name="uni4C" horiz-adv-x="1020" d="M2.048 575.104v63.488h190.464v-191.488h-63.488v69.632q-38.912-65.536-54.272-138.24-10.24-47.104-9.216-94.208 0-26.624 2.048-51.2 8.192-71.68 39.936-139.776t87.040-123.392 123.904-87.552 142.336-40.448q24.576-3.072 49.152-3.072l98.304 11.264q73.728 16.384 138.24 58.368l34.816-54.272q-62.464-39.936-131.584-59.392t-139.776-19.456q-99.328 0-193.024 37.888t-167.424 111.616q-65.536 65.536-102.4 146.944t-45.056 167.424q-2.048 22.528-1.024 46.080 0 64.512 15.36 128 21.504 86.016 72.704 161.792h-87.040zM238.592 719.488q74.752 48.128 158.72 66.56 55.296 12.288 112.64 12.288l57.344-3.072q83.968-9.216 162.304-46.080t140.8-100.352q65.536-66.56 102.4-147.968t45.056-167.424q2.048-22.528 2.048-46.080 0-64.512-16.384-128-21.504-86.016-72.704-161.792h87.040v-62.464h-190.464v191.488h63.488v-70.656q38.912 65.536 54.272 138.24 10.24 47.104 10.24 95.232 0 25.6-3.072 50.176-8.192 72.704-39.936 140.8t-87.040 123.392-123.904 87.552-142.336 40.448q-24.576 3.072-48.128 3.072-49.152 0-98.304-11.264-73.728-16.384-139.264-58.368z" />
<glyph unicode="&#x4d;" glyph-name="uni4D" horiz-adv-x="1467" d="M366.592 128.768q0 15.872 6.144 32.256 3.072 8.192 27.136 36.864t57.856 67.584 73.216 83.456 74.24 84.992 60.416 73.216 31.744 48.128q6.144 14.336 15.872 21.504t19.968 7.168 19.456-7.168 15.36-21.504q4.096-11.264 28.672-40.96t59.392-69.632 74.24-84.992 74.24-84.992 59.904-71.68 30.208-44.032q5.12-14.336 5.12-29.696t-4.608-28.16-13.824-20.992-21.504-8.192h-652.288q-11.264 0-20.48 7.68t-14.848 20.48-5.632 28.672z" />
<glyph unicode="&#x4e;" glyph-name="uni4E" horiz-adv-x="1309" d="M10.237-142.031v726.756q0 31.248 21.672 52.919t51.911 21.672h241.916v12.096q0 49.391 27.216 84.167t76.607 34.775h449.561q48.383 0 76.103-34.775t27.72-84.167v-12.096h240.908q31.248 0 52.919-21.672t21.672-52.919v-726.756q0-31.248-21.672-52.919t-52.919-21.672h-1140.030q-30.24 0-51.911 21.672t-21.672 52.919zM345.895 202.699q0-65.519 23.688-121.462t65.519-97.27 97.774-65.015 121.462-23.688v2.016q70.559 0 127.51 23.184t97.27 64.007 61.487 96.766 21.168 121.462q0 64.511-23.688 120.958t-65.015 97.774-97.774 65.015-120.958 23.688q-65.519 0-121.462-23.688t-97.774-65.015-65.519-97.774-23.688-120.958zM442.662 202.699q0-44.351 16.632-82.655t45.359-67.031 67.031-45.359 82.655-16.632q43.343 0 82.151 16.632t67.535 45.359 45.359 67.031 16.632 82.655q0 43.343-16.632 82.151t-45.359 67.535-67.535 45.359-82.151 16.632q-44.351 0-82.655-16.632t-67.031-45.359-45.359-67.535-16.632-82.151z" />
<glyph unicode="&#x4f;" glyph-name="uni4F" horiz-adv-x="1140" d="M113.664 354.56q20.48 21.504 47.104 21.504h1.024q28.672 0 48.128-22.528l221.184-242.688 498.688 538.624q20.48 21.504 48.64 21.504t48.64-21.504q20.48-20.48 20.48-51.2t-20.48-51.2l-547.84-590.848h-1.024v-1.024q-3.072-3.072-6.656-5.632t-7.68-4.608q-2.048-1.024-4.096-2.56t-4.096-2.56q-13.312-5.12-25.6-5.12t-25.6 5.12q-2.048 2.048-3.584 3.072t-3.584 3.072q-8.192 3.072-15.36 10.24v1.024l-269.312 293.888q-20.48 21.504-20.48 51.2 0 30.72 21.504 52.224z" />
<glyph unicode="&#x50;" glyph-name="uni50" horiz-adv-x="1386" d="M74.752-8.96v623.616q0 21.504 8.192 39.936t22.016 32.256 32.768 22.016 40.448 8.192h1036.288q21.504 0 40.448-8.192t32.768-22.016 22.016-32.256 8.192-39.936v-623.616q0-21.504-8.192-39.936t-22.016-32.256-32.768-22.016-40.448-8.192h-1036.288q-21.504 0-40.448 8.192t-32.768 22.016-22.016 32.256-8.192 39.936zM151.552 12.544l322.56 286.72-322.56 277.504v-564.224zM202.752 643.328l413.696-359.424q54.272-48.128 79.872-48.128t79.872 48.128l413.696 359.424h-987.136zM205.824-37.632h980.992l-323.584 281.6-53.248-46.080q-46.080-39.936-113.664-39.936t-113.664 39.936l-53.248 46.080zM918.528 299.264l322.56-286.72v564.224z" />
<glyph unicode="&#x51;" glyph-name="uni51" horiz-adv-x="874" d="M16.962-132.549v532.725q0 18.314 6.536 34.007t17.432 27.46 25.72 18.749 31.386 6.971h677.453q16.563 0 31.821-6.971t26.155-18.749 17.432-27.46 6.536-34.007v-532.725q0-18.314-6.536-34.007t-17.432-27.46-26.155-18.749-31.821-6.971h-677.453q-16.563 0-31.386 6.971t-25.72 18.749-17.432 27.46-6.536 34.007zM69.272-132.549q0-13.953 8.287-23.545t20.489-9.592h677.453q12.202 0 20.924 9.592t8.722 23.545v532.725q0 13.953-8.722 23.545t-20.924 9.592h-677.453q-12.202 0-20.489-9.592t-8.287-23.545v-532.725zM176.518 517.868q0 55.801 20.489 105.501t55.801 86.317 82.826 57.976 101.575 21.359q53.18 0 100.705-21.359t82.826-57.976 55.801-86.317 20.489-105.501h-52.31q0 45.339-16.563 84.577t-44.469 68.879-65.828 46.644-80.651 16.998q-43.597 0-81.521-16.998t-65.828-46.644-44.469-68.879-16.563-84.577h-52.31zM324.744 133.373q0 23.545 8.722 44.469t23.98 36.182 35.747 24.415 44.034 9.157q22.665 0 43.157-9.157t35.747-24.415 23.98-36.182 8.722-44.469-8.722-44.034-23.98-36.182-35.747-24.415-43.157-8.722q-23.545 0-44.034 8.722t-35.747 24.415-23.98 36.182-8.722 44.034zM377.923 133.373q0-25.285 16.998-42.718t42.283-17.432q24.415 0 41.848 17.432t17.432 42.718-17.432 42.718-41.848 17.432q-25.285 0-42.283-17.432t-16.998-42.718z" />
<glyph unicode="&#x52;" glyph-name="uni52" horiz-adv-x="961" d="M7.515 77.709q0 26.208 16.128 42.839t43.343 16.632q26.208 0 42.335-16.632t16.128-42.839v-176.397h177.405q26.208 0 42.839-16.128t16.632-42.335q0-27.216-16.632-43.343t-42.839-16.128h-235.868q-27.216 0-43.343 16.128t-16.128 43.343v234.86zM7.515 495.015v235.868q0 27.216 16.128 43.343t43.343 16.128h235.868q26.208 0 42.839-16.128t16.632-43.343q0-26.208-16.632-42.335t-42.839-16.128h-177.405v-177.405q0-26.208-16.128-42.839t-42.335-16.632q-27.216 0-43.343 16.632t-16.128 42.839zM598.194-157.151q0 26.208 16.128 42.335t43.343 16.128h176.397v176.397q0 26.208 16.632 42.839t42.839 16.632 42.839-16.632 16.632-42.839v-234.86q0-27.216-16.632-43.343t-42.839-16.128h-235.868q-27.216 0-43.343 16.128t-16.128 43.343zM598.194 730.883q0 27.216 16.128 43.343t43.343 16.128h235.868q26.208 0 42.839-16.128t16.632-43.343v-235.868q0-26.208-16.632-42.839t-42.839-16.632-42.839 16.632-16.632 42.839v177.405h-176.397q-27.216 0-43.343 16.128t-16.128 42.335z" />
<glyph unicode="&#x53;" glyph-name="uni53" horiz-adv-x="1355" d="M259.072 113.92l412.672 450.56 411.648-450.56-66.56-73.728-345.088 377.856-345.088-377.856z" />
<glyph unicode="&#x54;" glyph-name="uni54" horiz-adv-x="1243" d="M0 136.832v11.264q0 17.408 4.096 35.84 5.12 22.528 17.408 41.472t32.768 27.136q113.664 47.104 192 92.672t130.048 89.6 80.896 84.992 45.056 77.824 22.528 68.608 12.8 57.344 16.384 43.52 33.792 27.136q9.216 4.096 19.456 4.096 19.456 0 46.080-14.336 38.912-22.528 81.408-69.12t83.968-113.664 75.264-145.92 53.248-154.624q19.456-77.824 23.552-139.264 1.024-17.408 1.024-31.744 1.024-41.984-7.168-72.704-10.24-43.008-38.912-53.248-14.336-5.12-27.648-5.12-9.216 0-17.408 2.048-20.48 6.144-44.544 19.968t-53.248 31.744-68.096 32.768-90.112 23.040q-26.624 4.096-58.368 3.072-28.672 0-62.464-3.072-30.72-2.048-48.128-20.48-11.264-11.264-11.264-25.6 0-8.192 4.096-17.408 3.072-9.216 10.752-26.112t15.872-35.328 15.36-34.816 11.264-25.6 11.776-14.848 15.872-10.752 15.872-10.752 10.752-12.8q6.144-14.336 1.024-29.184t-25.6-23.040q-10.24-4.096-26.624-10.24t-33.792-12.8-32.768-12.8-22.528-9.216q-4.096-2.048-8.192-2.048l-8.192 2.048q-8.192 3.072-16.896 10.24t-15.872 16.896-11.264 19.968q-5.12 10.24-13.824 30.208t-17.92 41.984-18.432 43.52l-15.36 35.84q-5.12 12.288-14.848 14.848t-22.016 4.608-26.112 8.192-28.16 24.576q-12.288-4.096-20.48-6.656t-13.312-4.608-8.192-3.072q-12.288-4.096-25.6-4.096-8.192-1.024-17.408 1.024-22.528 4.096-42.496 16.896t-36.352 30.208-24.576 36.864q-8.192 18.432-10.24 43.008zM614.4 576.128q4.096-44.032 15.872-100.352t38.4-117.76q25.6-61.44 57.344-107.52t59.904-76.8 49.664-45.056q18.432-13.312 25.6-13.312h2.048q6.144 3.072 9.216 27.648 1.024 11.264 1.024 25.6 1.024 17.408-1.024 38.912-4.096 40.96-17.408 94.208t-38.912 114.688q-26.624 61.44-57.344 110.592t-58.88 82.944-49.152 51.2-27.136 15.36q-5.12-3.072-9.216-29.696-2.048-13.312-2.048-30.72t2.048-39.936zM963.584 621.184q3.072 8.192 10.752 11.776t15.872 1.536q7.168-3.072 17.408-8.192t21.504-14.336q39.936-28.672 66.56-80.896 25.6-51.2 25.6-102.4 1.024-14.336-1.024-25.6t-3.072-19.456q-2.048-8.192-10.24-12.288t-16.384-1.024q-8.192 2.048-12.288 9.728t-2.048 15.872q2.048 4.096 3.072 12.288t0 20.48q0 41.984-20.48 82.944-11.264 21.504-25.088 37.888t-29.184 28.672q-19.456 13.312-28.672 16.384-7.168 3.072-11.264 11.264-2.048 4.096-2.048 8.192 0 3.072 1.024 7.168zM999.424 732.8q2.048 8.192 10.24 12.288 5.12 3.072 10.24 3.072 3.072 0 5.12-1.024 11.264-3.072 29.184-10.24t38.4-21.504q34.816-22.528 64.512-53.76t50.176-74.24q21.504-43.008 29.696-84.992 6.144-30.72 5.12-60.416v-22.528q-2.048-25.6-5.632-44.032t-8.704-29.696q-5.12-14.336-17.408-14.336-4.096 0-9.216 2.048-8.192 3.072-11.264 11.264t0 16.384q0 1.024 4.096 15.36 2.048 10.24 4.096 21.504t3.072 23.552v16.384q0 28.672-5.12 57.344-7.168 36.864-25.6 73.728t-44.032 64-56.32 46.592q-10.24 7.168-20.48 12.288t-19.456 9.216q-5.12 2.048-9.216 3.584t-6.144 2.56q-9.216 1.024-13.312 9.216-3.072 5.12-3.072 11.264 0 3.072 1.024 5.12z" />
<glyph unicode="&#x55;" glyph-name="uni55" horiz-adv-x="1221" d="M0 81.536l1.024 409.6q0 20.48 15.36 35.84t37.888 15.36l243.712-1.024 305.152 244.736q11.264 10.24 26.624 12.288h7.168q11.264 0 22.528-5.12 14.336-6.144 22.528-18.944t8.192-27.136v-920.576q0-14.336-8.192-27.136t-22.528-18.944q-12.288-5.12-22.528-5.12-20.48 0-33.792 12.288l-304.128 242.688h-245.76q-22.528 0-37.888 15.36-15.36 13.312-15.36 35.84zM792.576 474.752q-3.072 9.216-3.072 16.384 0 11.264 5.12 22.528 10.24 18.432 30.72 25.6 9.216 3.072 17.408 3.072 11.264 0 22.528-5.12 2.048-1.024 24.576-14.336t48.64-42.496 47.616-75.776 21.504-114.176q0-70.656-20.48-118.784t-45.056-77.824-46.080-43.52-23.552-14.848q-12.288-5.12-23.552-5.12-14.336 0-27.136 7.168t-19.968 21.504q-6.144 11.264-6.144 22.528 1.024 8.192 3.072 16.384 6.144 20.48 26.624 29.696 1.024 0 12.8 8.704t26.112 27.648 26.112 49.664 11.776 76.8q0 43.008-12.288 72.192t-27.648 47.104-28.672 26.112-14.336 9.216q-19.456 9.216-26.624 29.696zM950.272 634.496q-1.024 6.144-2.048 10.24 0 14.336 9.216 27.648 11.264 17.408 32.768 21.504l12.288 2.048q14.336 0 27.648-8.192 2.048-1.024 16.896-11.776t35.84-32.256 45.568-53.76 45.056-76.288 33.792-100.864 13.312-126.464q0-105.472-27.648-180.224t-61.44-123.392-62.464-71.68-31.744-25.088q-14.336-8.192-29.696-8.192-12.288 0-24.064 5.632t-19.968 16.896q-9.216 12.288-9.216 27.648 0 4.096 2.048 10.24 4.096 20.48 22.528 33.792 2.048 1.024 23.552 18.944t46.080 55.808 45.056 96.768 20.48 142.848q0 82.944-21.504 142.336t-47.616 97.28-48.128 55.808-24.064 19.968q-18.432 12.288-22.528 32.768z" />
<glyph unicode="&#x56;" glyph-name="uni56" horiz-adv-x="910" d="M0 286.336q0 23.552 9.216 44.032t24.576 35.84 35.84 24.576 44.032 9.216q28.672 0 52.224-12.8t39.936-34.304l485.376 287.744q-8.192 21.504-8.192 44.032 0 23.552 8.704 44.032t24.064 35.84 36.352 24.576 44.544 9.216 44.032-9.216 35.84-24.576 24.576-35.84 9.216-44.032-9.216-44.032-24.576-35.84-35.84-24.576-44.032-9.216q-40.96 0-71.68 25.6l-498.688-295.936q0-3.072 0.512-6.656t0.512-7.68q0-5.12-0.512-10.752t-1.536-10.752l484.352-302.080q16.384 17.408 38.4 28.16t48.64 10.752q23.552 0 44.032-8.704t35.84-24.064 24.576-35.84 9.216-44.032-9.216-44.032-24.576-35.84-35.84-24.576-44.032-9.216-44.544 9.216-36.352 24.576-24.064 35.84-8.704 44.032v11.264t2.048 11.264l-485.376 301.056q-15.36-18.432-37.376-29.184t-48.64-10.752q-23.552 0-44.032 9.216t-35.84 24.576-24.576 35.84-9.216 44.032z" />
<glyph unicode="&#x57;" glyph-name="uni57" horiz-adv-x="961" d="M9.531 501.82q-2.016 6.048-2.016 13.104 0 13.104 7.056 25.2l3.024 5.040q10.080 17.136 30.24 23.184 7.056 2.016 13.104 2.016 13.104 0 25.2-7.056l55.439-31.248q17.136-10.080 23.184-30.24 2.016-7.056 2.016-14.112 0-12.096-6.048-24.192l-4.032-5.040q-10.080-17.136-30.24-23.184-7.056-2.016-14.112-2.016-12.096 0-24.192 7.056l-55.439 32.255q-18.144 9.072-23.184 29.232zM41.787-162.441q0 46.367 46.367 46.367h810.419q23.184 0 38.807-14.112t15.624-37.295q0-22.176-15.624-35.783t-38.807-13.608h-811.427q-23.184 0-34.271 15.624t-11.088 38.807zM144.601-67.691v315.499q0 67.535 29.736 126.502t79.127 102.814 113.398 69.551 131.542 25.704 131.038-25.704 112.894-69.551 78.623-102.814 29.232-126.502v-315.499h-705.589zM232.296 724.585q7.056 19.152 27.216 27.216l5.040 2.016q11.088 4.032 21.168 4.032 9.072 0 18.144-3.024 19.152-7.056 27.216-26.208l25.2-58.463q4.032-10.080 5.040-20.16 0-9.072-4.032-18.144-7.056-19.152-27.216-27.216l-5.040-3.024q-10.080-4.032-20.16-4.032-9.072-1.008-19.152 3.024-19.152 8.064-27.216 27.216l-25.2 58.463q-4.032 10.080-4.032 20.16 0 9.072 3.024 18.144zM246.408 30.084h500.968v203.613q0 48.383-19.656 90.719t-53.423 74.087-78.119 50.399-92.735 18.648q-49.391 0-95.758-18.648t-82.151-50.399-57.455-74.087-21.672-90.719v-203.613zM297.815 130.882q-1.008 15.12-1.008 29.232 0 21.168 2.016 39.311 3.024 30.24 8.064 51.407 5.040 24.192 13.104 42.335 10.080 18.144 25.2 35.279 13.104 14.112 31.751 27.72t44.855 20.664q9.072 1.008 16.128 1.008 9.072 1.008 17.136-1.008 12.096-2.016 19.152-7.056 8.064-4.032 12.096-11.088 6.048-14.112 0.504-26.208t-16.632-22.68-24.192-20.664-21.168-19.152q-8.064-12.096-14.112-30.24-5.040-17.136-10.080-43.343t-5.040-65.519h-97.774zM497.396 676.202l1.008 64.511q0 20.16 12.6 34.271t32.759 15.12h10.080q18.144 0 30.24-12.096 14.112-14.112 13.104-34.271l-1.008-64.511q-1.008-20.16-13.104-35.279t-32.255-15.12l-7.056-1.008q-20.16 0-33.767 14.112t-12.6 34.271z" />
<glyph unicode="&#x58;" glyph-name="uni58" d="M27.16-112.042l399.162 398.154-399.162 399.162q-19.152 19.152-19.152 44.351v1.008q0 24.192 17.136 42.335 18.144 17.136 43.847 17.136t43.847-19.152l399.162-399.162 399.162 399.162q18.144 19.152 43.847 19.152t43.847-17.136q17.136-18.144 17.136-43.847t-19.152-43.847l-399.162-399.162 399.162-398.154q19.152-18.144 19.152-43.847t-17.136-43.847q-18.144-17.136-43.847-17.136t-43.847 19.152l-399.162 398.154-399.162-398.154q-18.144-19.152-43.847-19.152t-43.847 17.136q-17.136 17.136-17.136 42.335 0 26.208 19.152 45.359z" />
<glyph unicode="&#x59;" glyph-name="uni59" horiz-adv-x="461" d="M3.605 287.37v174.381h98.782v104.83q0 161.277 104.83 205.629 26.208 11.088 48.887 14.616t45.863 3.528h153.214v-173.373h-91.727q-38.303 0-52.415-23.184-9.072-15.12-9.072-52.415v-79.631h155.23l-18.144-174.381h-137.086v-503.992h-199.581v503.992h-98.782z" />
<glyph unicode="&#x5a;" glyph-name="uni5A" horiz-adv-x="1163" d="M0 419.456l105.472-44.032q-32.768 46.080-52.224 85.504t-30.72 69.12q-12.288 33.792-17.408 62.464-2.048 20.48-2.048 39.936v13.312q1.024 22.528 4.096 47.616t14.336 44.544q16.384-32.768 54.272-65.024t76.8-57.856q45.056-30.72 97.28-57.344 61.44-31.744 117.76-49.664t100.864-27.136 74.752-10.752 40.448-1.536h5.12q-12.288 40.96-12.288 77.824 1.024 30.72 7.168 57.344 6.144 28.672 18.432 52.224t26.624 41.984q33.792 43.008 82.944 72.704 52.224 22.528 106.496 26.624h13.312q16.384 1.024 34.816-1.024 25.6-2.048 51.712-12.8t51.712-29.184 49.152-47.104q11.264 3.072 21.504 6.656t18.432 5.632q9.216 3.072 16.384 5.12t16.384 6.144q8.192 3.072 17.92 8.192t23.040 11.264l-56.32-102.4 87.040 9.216q-5.12-6.144-11.776-14.336t-14.848-16.384q-9.216-9.216-18.432-17.408-10.24-9.216-19.456-18.432l-16.384-16.384t-13.312-14.336q1.024-17.408 0-34.816 0-29.696-2.048-57.344-4.096-44.032-11.776-84.48t-18.432-76.288-22.016-65.536q-26.624-70.656-63.488-129.024-97.28-145.408-228.352-230.4t-314.368-103.424q-34.816-2.048-70.656-2.048t-71.68 2.048q-61.44 5.12-131.072 21.504t-130.048 54.272q39.936 2.048 72.192 7.68t55.808 10.752q26.624 6.144 47.104 14.336 19.456 8.192 46.080 21.504 22.528 11.264 52.736 29.696t67.072 45.056q-52.224 16.384-88.576 33.28t-58.88 30.208q-26.624 15.36-41.984 29.696-14.336 13.312-26.624 27.648-11.264 11.264-20.992 25.088t-14.848 25.088l138.24 2.048q-55.296 29.696-90.624 54.784t-56.832 44.544q-25.6 22.528-38.912 40.96-11.264 18.432-21.504 38.912-8.192 17.408-15.36 38.912t-9.216 45.056z" />
<glyph unicode="&#x61;" glyph-name="uni61" horiz-adv-x="1050" d="M18.889 138.208v295.961q0 73.992 27.868 138.852t75.912 113.387 112.908 76.392 138.852 27.868h295.961q73.992 0 138.852-27.868t113.387-76.392 76.392-113.387 27.868-138.852v-295.961q0-73.992-27.868-138.373t-76.392-112.908-113.387-76.392-138.852-27.868h-295.961q-73.992 0-138.852 27.868t-112.908 76.392-75.912 112.908-27.868 138.373zM113.061 115.146q0-49.006 18.739-92.249t50.93-75.433 75.912-50.93 92.728-18.739h342.086q49.006 0 92.728 18.739t75.912 50.93 50.93 75.433 18.739 92.249v342.086q0 49.006-18.739 92.728t-50.93 75.912-75.912 50.93-92.728 18.739h-342.086q-49.006 0-92.728-18.739t-75.912-50.93-50.93-75.912-18.739-92.728v-342.086zM262.003 280.422q0 53.812 20.18 101.377t55.732 82.638 83.12 55.732 101.377 20.659 101.377-20.659 82.638-55.732 55.732-82.638 20.659-101.377-20.659-100.895-55.732-82.638-82.638-55.732-101.377-20.18-101.377 20.18-83.12 55.732-55.732 82.638-20.18 100.895zM355.211 283.307q0-33.632 12.972-63.902t35.073-52.371 52.371-35.073 63.902-12.972q34.593 0 64.381 12.972t52.371 35.073 35.555 52.371 12.972 63.902q0 34.593-12.972 64.381t-35.555 52.371-52.371 35.555-64.381 12.972q-33.632 0-63.902-12.972t-52.371-35.555-35.073-52.371-12.972-64.381zM729.969 551.401q0 26.906 18.257 45.644t45.163 18.739q25.944 0 44.683-18.739t18.739-45.644q0-25.944-18.739-44.683t-44.683-18.739q-26.906 0-45.163 18.739t-18.257 44.683z" />
<glyph unicode="&#x62;" glyph-name="uni62" horiz-adv-x="1280" d="M20.020 405.052q0 21.824 7.936 40.67t22.32 32.734 33.23 22.32 39.678 8.432q21.824 0 40.67-8.432t32.734-22.32 22.32-32.734 8.432-40.67q0-13.888-3.968-26.784t-9.92-24.8l255.928-144.828 137.884 388.852q-28.768 10.912-47.614 37.198t-18.848 60.014q0 20.832 7.936 39.678t21.824 33.23 32.734 22.32 40.67 7.936q20.832 0 39.678-7.936t33.23-22.32 22.32-33.23 7.936-39.678q0-33.726-19.344-60.014t-49.102-37.198l137.884-388.852 253.944 143.836q-17.856 25.792-17.856 57.534 0 20.832 7.936 39.678t22.32 33.23 33.23 22.32 40.67 7.936q20.832 0 39.678-7.936t33.23-22.32 22.32-33.23 7.936-39.678q0-21.824-7.936-40.67t-22.32-33.23-33.23-22.32-39.678-7.936q-2.976 0-6.448 0.496t-6.448 0.496l-81.342-499.952h-840.196l-80.35 496.976q-4.96-0.992-9.424-1.488t-9.424-0.496q-20.832 0-39.678 7.936t-33.23 22.32-22.32 33.23-7.936 39.678z" />
<glyph unicode="&#x63;" glyph-name="uni63" horiz-adv-x="538" d="M38.912-36.608l353.28 338.944-353.28 339.968 71.68 69.632 406.528-391.168-19.456-18.432 19.456-18.432-406.528-390.144z" />
<glyph unicode="&#x64;" glyph-name="uni64" horiz-adv-x="892" d="M0-41.728q0 7.168-1.024 15.36 0 16.384 2.048 37.888 3.072 31.744 14.336 83.968 7.168 36.864 15.36 66.56t21.504 56.32 34.816 53.248 57.344 59.392q16.384 14.336 33.792 29.696t35.84 23.552q17.408 8.192 34.816 9.216 1.024-1.024 3.072-1.024 18.432 0 37.888-18.432 21.504-25.6 34.304-41.472t21.504-26.112 15.872-17.408 17.408-15.36q34.816-30.72 63.488-30.72h1.024q28.672 0 64.512 30.72 10.24 8.192 18.432 15.36t17.408 17.92 22.016 26.624 34.304 41.472q17.408 15.36 34.816 15.36h2.048q18.432 0 35.84-10.24t34.304-25.088 34.304-27.136q33.792-30.72 54.784-55.808t34.304-50.176 22.016-52.736 17.92-63.488q14.336-53.248 18.432-88.064 2.048-21.504 2.048-38.912v-18.432q-2.048-22.528-9.728-37.888l-14.848-29.696q-25.6-48.128-73.728-77.824t-121.856-37.888h-449.536q-83.968 9.216-133.632 37.888t-67.072 70.656q-8.192 19.456-13.312 35.328t-7.168 37.376zM253.952 612.608q0 36.864 14.336 71.68t40.96 61.44q14.336 12.288 29.696 22.528t32.768 17.408q34.816 14.336 72.704 14.336 36.864 0 71.68-14.336 17.408-7.168 32.768-17.408t29.696-22.528q26.624-26.624 40.96-61.44t14.336-71.68q0-34.816-14.336-71.68-13.312-32.768-40.96-60.416-27.648-26.624-62.464-39.936-17.408-8.192-35.328-11.264t-36.352-3.072q-40.96 0-72.704 14.336-34.816 13.312-62.464 39.936-27.648 27.648-40.96 60.416-14.336 36.864-14.336 71.68z" />
<glyph unicode="&#x65;" glyph-name="uni65" horiz-adv-x="1017" d="M2.048 368.896q-2.048 10.24-2.048 20.48 0 15.36 5.12 29.696 8.192 25.6 27.648 42.496t46.080 20.992l189.44 29.696q23.552 3.072 41.984 15.36t27.648 32.768l86.016 185.344q11.264 24.576 34.304 39.424t49.664 14.848q27.648 0 50.688-14.848t34.304-39.424l84.992-184.32q10.24-20.48 29.184-33.28t42.496-15.872l188.416-29.696q26.624-4.096 46.080-20.992t27.648-42.496q5.12-14.336 5.12-29.696-1.024-10.24-3.072-20.48-6.144-25.6-23.552-45.056l-146.432-151.552q-24.576-24.576-24.576-60.416 0-5.12 0.512-8.704t1.536-8.704v-3.072l32.768-204.8q2.048-9.216 2.048-17.408 0-17.408-7.168-33.792-10.24-24.576-32.768-40.96-23.552-17.408-53.248-17.408-24.576 0-45.056 11.264l-167.936 91.136q-19.456 11.264-40.96 11.264-13.312 0-24.576-4.096t-21.504-9.216l-163.84-89.088q-20.48-11.264-44.032-11.264-3.072 1.024-5.12 1.024-26.624 2.048-49.152 16.384-22.528 16.384-32.768 40.96-7.168 16.384-7.168 33.792 0 8.192 2.048 17.408l34.816 214.016v10.24q0 34.816-22.528 59.392l-148.48 154.624q-18.432 18.432-24.576 44.032z" />
<glyph unicode="&#x66;" glyph-name="uni66" d="M0 288q0 70.656 18.432 136.192t51.712 122.368 79.872 103.424 103.424 79.872 122.368 51.712 136.192 18.432q105.472 0 199.168-40.448t162.816-109.568 109.568-162.816 40.448-199.168q0-106.496-40.448-199.168t-109.568-162.304-162.816-109.568-199.168-39.936q-106.496 0-199.68 39.936t-162.304 109.568-109.568 162.304-40.448 199.168zM113.664 288q0-81.92 31.232-154.624t85.504-126.464 126.976-84.992 154.624-31.232 154.624 31.232 126.976 84.992 85.504 126.464 31.232 154.624-31.232 154.624-85.504 126.976-126.976 85.504-154.624 31.232-154.624-31.232-126.976-85.504-85.504-126.976-31.232-154.624zM288.768 244.992q0-23.552 16.896-40.448t40.448-16.896l258.048 1.024v304.128q0 23.552-16.896 39.936t-40.448 16.384-39.936-16.384-16.384-39.936v-190.464l-144.384-1.024q-23.552 0-40.448-16.384t-16.896-39.936z" />
<glyph unicode="&#x67;" glyph-name="uni67" horiz-adv-x="995" d="M0 155.904h105.472q20.48-60.416 57.856-111.104t87.552-87.552 110.592-57.344 126.976-20.48q83.968 0 157.696 32.256t129.024 87.552 87.040 129.536 31.744 159.232-31.744 159.744-87.040 130.048-129.024 87.552-157.696 32.256q-96.256 0-178.176-41.984t-138.24-112.64l103.424-103.424h-275.456v278.528l100.352-102.4q5.12 6.144 9.728 11.776t9.728 10.752q69.632 74.752 164.352 118.272t204.288 43.52q104.448 0 197.12-40.448t161.28-109.568 108.544-162.816 39.936-199.168q0-106.496-39.936-199.168t-108.544-162.304-160.768-109.568-197.632-39.936q-88.064 0-166.912 28.672t-142.848 79.36-110.592 119.808-68.096 151.040zM358.4 96.512v378.88q0 13.312 11.264 19.456 5.12 4.096 11.264 4.096l11.264-4.096 323.584-189.44q11.264-6.144 11.264-18.944t-11.264-18.944l-323.584-189.44q-6.144-4.096-11.264-4.096l-11.264 3.072q-11.264 7.168-11.264 19.456z" />
<glyph unicode="&#x68;" glyph-name="uni68" d="M0 215.296v145.408h1024v-145.408h-1024z" />
<glyph unicode="&#x69;" glyph-name="uni69" d="M0 215.296v145.408h439.296v439.296h145.408v-439.296h439.296v-145.408h-439.296v-438.272h-145.408v438.272h-439.296z" />
<glyph unicode="&#x6a;" glyph-name="uni6A" horiz-adv-x="1895" d="M224.768 240.896q-1.024 5.12-1.024 9.216 0 9.216 5.12 18.432t13.312 13.824 17.408 4.608q11.264 0 17.408-5.12l113.664-69.632q33.792 36.864 73.728 66.56l-80.896 101.376q-9.216 11.264-8.192 26.624t12.288 25.6q11.264 8.192 22.528 8.192 17.408 0 27.648-13.312l88.064-109.568q53.248 29.696 114.688 51.2l-49.152 134.144q-5.12 14.336 0.512 28.672t18.944 19.456q6.144 3.072 13.312 3.072 11.264 0 19.968-6.656t12.8-17.92l52.224-140.288q62.464 16.384 126.976 23.552l-27.648 158.72q-2.048 15.36 6.144 28.16t22.528 14.848q2.048 1.024 6.144 1.024 13.312 0 23.040-8.192t11.776-22.528l28.672-165.888q14.336 1.024 28.672 1.536t28.672 0.512 28.672-0.512 28.672-1.536l27.648 165.888q2.048 14.336 12.288 22.528t22.528 8.192q4.096 0 6.144-1.024 14.336-2.048 22.528-14.848t6.144-28.16l-27.648-158.72q32.768-4.096 65.024-9.728t62.976-13.824l52.224 140.288q4.096 11.264 12.8 17.92t19.968 6.656q6.144 0 12.288-3.072 14.336-5.12 19.968-19.456t0.512-28.672l-50.176-134.144q61.44-21.504 114.688-51.2l89.088 109.568q10.24 13.312 26.624 13.312 12.288 0 22.528-8.192 11.264-10.24 12.8-25.6t-8.704-26.624l-80.896-101.376q43.008-31.744 74.752-66.56l112.64 69.632q7.168 5.12 18.432 5.12 20.48 0 29.696-18.432 5.12-9.216 5.12-18.432 0-4.096-1.024-9.216-4.096-14.336-16.384-22.528l-104.448-64.512q7.168-13.312 13.312-26.112t11.264-26.112q5.12-14.336-0.512-28.672t-18.944-19.456q-14.336-6.144-27.648 0t-18.432 20.48q-16.384 45.056-52.224 84.992t-86.016 72.192-113.152 56.832-134.656 38.912q22.528-28.672 35.328-64t12.8-74.24q0-47.104-17.408-88.576t-48.128-72.192-71.68-48.64-88.064-17.92q-46.080 0-87.040 17.92t-71.68 48.64-48.128 72.192-17.408 88.576q0 41.984 14.336 78.336t37.888 66.048q-76.8-12.288-145.408-36.864t-123.392-57.856-93.696-75.264-56.32-89.088q-5.12-14.336-18.432-20.48t-26.624 0q-14.336 5.12-19.968 19.456t-0.512 28.672q5.12 13.312 11.264 26.112t14.336 26.112l-105.472 64.512q-12.288 8.192-16.384 22.528zM913.92 220.416q0-20.48 7.68-37.888t20.48-30.72 30.208-20.992 37.888-7.68q19.456 0 37.376 7.68t30.72 20.992 20.48 30.72 7.68 37.888-7.68 38.4-20.48 31.232-30.72 20.992-37.376 7.68q-20.48 0-37.888-7.68t-30.208-20.992-20.48-31.232-7.68-38.4z" />
<glyph unicode="&#x6b;" glyph-name="uni6B" horiz-adv-x="2244" d="M443.392 312.576q4.096 14.336 15.36 20.48l99.328 59.392q-7.168 12.288-12.8 24.576t-10.752 24.576q-5.12 13.312 0 26.112t18.432 17.92q6.144 2.048 12.8 2.56t12.8-2.56q12.288-5.12 17.408-19.456 18.432-48.128 60.928-90.112t102.912-74.752 135.68-54.272 158.208-29.696q8.192 2.048 13.312 1.024 2.048-1.024 3.584-1.024t3.584-1.024q33.792-3.072 68.608-3.072t68.608 3.072q2.048 1.024 3.584 1.024t3.584 1.024q4.096 1.024 12.288-1.024 83.968 8.192 158.72 29.696t135.168 54.272 102.912 74.752 60.928 90.112q5.12 14.336 17.408 19.456 6.144 2.048 13.312 2.56t13.312-2.56q12.288-5.12 17.92-17.92t0.512-26.112q-5.12-12.288-10.752-24.576t-12.8-24.576l99.328-59.392q11.264-6.144 15.36-20.48 1.024-4.096 1.024-9.216 0-9.216-5.12-17.408-9.216-17.408-28.672-17.408-8.192 0-16.384 5.12l-107.52 64.512q-30.72-32.768-70.656-61.44l76.8-93.184q9.216-11.264 8.192-25.6t-11.264-23.552q-11.264-8.192-21.504-8.192-16.384 0-25.6 12.288l-83.968 102.4q-50.176-27.648-109.568-47.104l48.128-124.928q5.12-14.336-0.512-27.136t-18.944-17.92q-8.192-2.048-12.288-2.048-22.528 0-30.72 21.504l-49.152 131.072q-29.696-8.192-59.392-13.312t-61.44-9.216l25.6-147.456q2.048-13.312-5.12-24.576t-21.504-14.336h-6.144q-11.264 0-20.992 7.68t-11.776 19.968l-26.624 152.576q-14.336 0-27.136-0.512t-27.136-0.512-27.648 0.512-26.624 0.512l-26.624-152.576q-2.048-12.288-11.776-19.968t-20.992-7.68h-6.144q-14.336 3.072-22.016 14.336t-4.608 24.576l25.6 147.456q-31.744 4.096-61.44 9.216t-59.392 13.312l-49.152-131.072q-8.192-21.504-30.72-21.504-4.096 0-12.288 2.048-13.312 5.12-18.944 17.92t-0.512 27.136l47.104 124.928q-29.696 10.24-56.832 21.504t-51.712 25.6l-83.968-102.4q-9.216-12.288-25.6-12.288-11.264 0-21.504 8.192-11.264 9.216-11.776 23.552t7.68 25.6l76.8 93.184q-39.936 30.72-69.632 61.44l-107.52-64.512q-8.192-5.12-16.384-5.12-20.48 0-29.696 17.408-4.096 8.192-4.096 16.384 0 5.12 1.024 10.24z" />
<glyph unicode="&#x6c;" glyph-name="google" data-tags="google" horiz-adv-x="1088" d="M244.983 673.841c14.642 17.43 33.893 26.592 55.449 26.592h2.44c60.962-1.926 119.259-72.493 129.969-157.342 6.010-47.593-4.158-92.319-27.115-119.569-14.732-17.43-33.622-26.592-56.127-26.592h-0.994c-59.697 1.879-119.259 75.171-129.924 159.973-6.010 47.405 3.615 90.017 26.301 116.938zM159.527 37.097c0 67.372 82.428 126.522 176.244 126.522h2.531c20.426-0.235 40.31-3.383 59.155-9.396 6.417-4.604 12.653-9.021 18.619-13.202 43.474-30.82 72.17-51.116 80.214-83.769 1.853-8.222 2.802-16.444 2.802-24.384 0-83.91-60.239-126.522-179.001-126.522-90.020 0-160.563 57.459-160.563 130.75zM507.767 249.22c-32.944 24.243-62.906 59.808-63.448 70.708 0 19.967 1.717 29.458 44.649 64.224 55.585 45.197 86.179 104.675 86.179 167.443 0 56.942-16.721 107.541-45.236 143.013h22.053c4.609 0 9.038 1.55 12.744 4.275l61.64 46.465c7.637 5.685 10.891 15.88 7.954 25.182-2.892 9.255-11.207 15.598-20.652 15.598h-275.664c-30.142 0-60.782-5.544-90.879-16.35-100.55-35.941-170.731-124.972-170.731-216.351 0-129.435 96.392-227.58 225.367-230.634-2.531-10.336-3.796-20.39-3.796-30.303 0-19.967 4.881-38.854 14.913-57.13h-3.57c-122.919 0-233.863-62.721-276.026-155.98-10.981-24.337-16.54-48.814-16.54-73.057 0-23.538 5.83-46.23 17.263-67.56 26.437-49.143 83.287-87.386 160.156-107.541 39.632-10.43 82.247-15.739 126.534-15.739 39.768 0 77.638 5.356 112.706 15.88 109.317 32.981 179.905 116.609 179.905 213.203 0 92.648-28.561 148.040-105.521 204.653zM1056.122 410.255h-135.573v140.945h-90.382v-140.945h-135.573v-93.964h135.573v-140.945h90.382v140.945h135.573v93.964z" />
<glyph unicode="&#x6d;" glyph-name="arrow2" data-tags="arrow" d="M440.659 280.576c0 9.499 3.774 18.609 10.49 25.326l319.818 319.804c13.987 13.987 36.666 13.988 50.653 0 13.987-13.987 13.987-36.664 0-50.651l-294.49-294.479 294.489-294.477c13.987-13.988 13.987-36.664 0-50.652-6.995-6.994-16.159-10.491-25.327-10.49-9.165 0.001-18.334 3.498-25.327 10.49l-319.818 319.804c-6.715 6.716-10.488 15.825-10.488 25.325zM195.296 305.902l319.817 319.804c13.987 13.987 36.667 13.987 50.654 0s13.987-36.665 0-50.652l-294.49-294.478 294.489-294.477c13.987-13.988 13.987-36.664 0-50.652-6.994-6.993-16.161-10.49-25.327-10.49s-18.333 3.497-25.327 10.49l-319.817 319.804c-13.986 13.986-13.986 36.664 0.001 50.651z" />
<glyph unicode="&#x6e;" glyph-name="arrow" data-tags="arrow" d="M583.341 280.576c0 9.499-3.774 18.609-10.49 25.326l-319.818 319.804c-13.987 13.987-36.666 13.988-50.653 0-13.987-13.987-13.987-36.664 0-50.651l294.49-294.479-294.489-294.477c-13.987-13.988-13.987-36.664 0-50.652 6.995-6.994 16.159-10.491 25.327-10.49 9.165 0.001 18.334 3.498 25.327 10.49l319.818 319.804c6.715 6.716 10.488 15.825 10.488 25.325zM828.704 305.902l-319.817 319.804c-13.987 13.987-36.667 13.987-50.654 0s-13.987-36.665 0-50.652l294.49-294.478-294.489-294.477c-13.987-13.988-13.987-36.664 0-50.652 6.994-6.993 16.161-10.49 25.327-10.49s18.333 3.497 25.327 10.49l319.817 319.804c13.986 13.986 13.986 36.664-0.001 50.651z" />
<glyph unicode="&#x6f;" glyph-name="circle" data-tags="circle" d="M1011.968 288c0-282.752-223.808-512-499.968-512-276.096 0-499.968 229.248-499.968 512s223.872 512 499.968 512c276.096 0 499.968-229.248 499.968-512z" />
<glyph unicode="&#x70;" glyph-name="right" data-tags="right" d="M433.245-91.248c0 0 107.174 274.148 408.738 468.486 0 0-71.198 123.928 24.723 363.514 0 0-299.37-168.741-433.452-564.327 0 0-33.557 66.78-87.164 207.525 0 0-131.492-50.364-243.337-169.28-0.002 0 156.313-50.68 330.497-305.93z" />
<glyph unicode="&#x71;" glyph-name="icomoon" data-tags="icomoon" horiz-adv-x="1221" d="M1 81.535l1.024 409.601c0 13.653 5.12 25.6 15.36 35.84s22.87 15.36 37.888 15.36l243.712-1.024 305.152 244.736c7.51 6.826 16.384 10.923 26.624 12.288h7.168c7.51 0 15.019-1.707 22.528-5.12 9.558-4.096 17.066-10.411 22.528-18.944s8.191-17.578 8.191-27.136v-920.576c0-9.558-2.73-18.603-8.191-27.136s-12.971-14.849-22.528-18.944c-8.192-3.413-15.701-5.12-22.528-5.12-13.653 0-24.917 4.096-33.792 12.288l-304.128 242.688h-245.76c-15.019 0-27.648 5.119-37.888 15.359-10.24 8.876-15.36 20.822-15.36 35.84v0zM1202 165.329v-96.231h-96.231l-121.519 121.517-121.519-121.517h-96.231v96.231l121.519 121.519-121.519 121.517v96.233h96.231l121.519-121.519 121.519 121.519h96.231v-96.233l-121.519-121.517 121.519-121.519z" />
<glyph unicode="&#x72;" glyph-name="loading" data-tags="loading" d="M512.152 796.021h-0.308c-21.655 0-39.163-17.479-39.163-39.022v-238.351c0-21.619 17.508-39.098 39.163-39.098h0.308c21.655 0 39.164 17.479 39.164 39.098v238.35c0.001 21.544-17.509 39.023-39.164 39.023zM373.688 483.966l-168.136 167.819c-15.474 15.41-40.547 15.41-56.058 0-15.437-15.487-15.437-40.479 0-55.965l168.174-167.82c15.435-15.409 40.546-15.409 56.019 0 15.475 15.487 15.475 40.48 0.001 55.966zM281.307 359.929h-237.787c-21.886 0-39.625-17.71-39.625-39.56s17.739-39.559 39.625-39.559h237.787c21.886 0 39.663 17.71 39.663 39.559s-17.777 39.56-39.663 39.56zM370.274 211.638c-15.435 15.41-40.547 15.41-56.020 0l-168.138-167.819c-15.511-15.486-15.511-40.555 0-55.965 15.474-15.488 40.547-15.488 56.060 0l168.099 167.819c15.512 15.409 15.512 40.478 0 55.965zM512.018 161.201c-21.922 0-39.663-17.709-39.663-39.558v-237.353c0-21.851 17.74-39.559 39.663-39.559 21.889 0 39.627 17.709 39.627 39.559v237.353c0 21.849-17.738 39.558-39.627 39.558zM877.377 43.751l-168.137 167.82c-15.473 15.486-40.583 15.486-56.059 0-15.473-15.411-15.473-40.48 0-55.89l168.137-167.818c15.473-15.489 40.584-15.489 56.059 0 15.473 15.411 15.473 40.48 0 55.888zM978.391 359.929h-235.983c-21.694 0-39.317-17.709-39.317-39.56 0-21.849 17.623-39.559 39.317-39.559h235.983c21.694 0 39.316 17.71 39.316 39.559 0 21.851-17.621 39.56-39.316 39.56zM864.812 641.225c-14.821 14.796-38.78 14.796-53.563 0l-160.611-160.307c-14.745-14.719-14.745-38.639 0-53.435 14.821-14.719 38.779-14.719 53.524 0l160.65 160.306c14.743 14.796 14.743 38.716 0 53.436z" />
</font>
</defs>
</svg>
