<?xml version="1.0" standalone="no"?>
<!DOCTYPE svg PUBLIC "-//W3C//DTD SVG 1.1//EN" "http://www.w3.org/Graphics/SVG/1.1/DTD/svg11.dtd" >
<svg xmlns="http://www.w3.org/2000/svg">
<metadata>Generated by IcoMoon</metadata>
<defs>
<font id="icomoon" horiz-adv-x="1024">
<font-face units-per-em="1024" ascent="819" descent="-205" />
<missing-glyph horiz-adv-x="1024" />
<glyph unicode="&#x20;" horiz-adv-x="0" d="" />
<glyph unicode="&#xe024;" glyph-name="heart" d="M512-13l58-63-58-58-134 135 60 60zM90 288q-37 37-56 84t-19 97q0 63 28 117l75-40q-18-35-18-77 0-33 13-64 12-32 37-56l288-288-60-60zM882 691q59-34 93-93t34-129q0-50-19-97t-56-84l-309-309-57 64 306 306q25 24 37 56 13 31 13 64 0 47-23 86t-62 62q-30 18-65 22l-3 85q60-4 111-33zM753 640q-33 0-64-13-32-12-56-37l-35-35-52 69 26 26q37 37 84 56t97 19q9 0 18-1l3-85q-10 1-21 1zM512 469l-121 121q-24 25-56 37-31 13-64 13-47 0-86-23t-62-62q-3-5-5-9l-75 40 6 12q34 59 93 93t129 34q50 0 97-19t84-56l60-60 34 34 52-69zM208 322q-31 31-47 70-16 40-16 82 20 103 94 138l54-26q-71-52-77-112 0-28 11-54 10-27 31-47l242-242-51-50zM616 440l-19-17-31 54 20 21q81 75 133 99 49-20 27-58-54-29-130-99z" />
<glyph unicode="&#xe069;" glyph-name="download" d="M213-213q-53 0-90 37-38 38-38 91v597q0 53 38 90 37 38 90 38h471v-85h-471q-17 0-30-13-12-12-12-30v-597q0-18 12-31 13-12 30-12h86l1-85h-87zM811-128q17 0 30 12 12 13 12 31v597q0 18-12 30-13 13-30 13h-171v85h171q53 0 90-38 38-37 38-90v-597q0-53-38-91-37-37-90-37h-111l-2 85h113zM555 458v-527l97 98q13 12 31 12t30-12 12-30-12-31l-171-170q-12-13-30-13t-30 13l-171 170q-12 13-12 31 0 17 12 30 13 12 30 12 18 0 31-12l97-98v527h86zM469 458v10q0 18 13 30 12 13 30 13t30-13q13-12 13-30v-10h-86zM294-128h10q18 1 30-12 13-12 14-30 0-18-13-30-12-13-30-14h-10zM709-214h-9q-17 1-28 14-12 12-12 30 1 18 13 30 11 13 28 12h9z" />
<glyph unicode="&#xe0d8;" glyph-name="sms" d="M85 137v504q0 34 24.5 59t59.5 25h504q34 0 59-25t25-59v-512q0-35-24.5-60.5t-59.5-25.5h-391l-134-179 54 181h-61q-57 12-56 92z" />
<glyph unicode="&#xe80b;" glyph-name="global" d="M512 738q88 0 166-33.5t135.5-91.5 91-135.5 33.5-165.5q0-89-33.5-166.5t-91-135.5-135-91-166.5-33q-88 0-166 33t-135.5 91-91 135.5-33.5 166.5q0 88 33.5 165.5t91 135.5 135 91.5 166.5 33.5zM288 516h24l50-49 25 24h149l50-49v-25l-74-100q124 0 124-149 100 33 100 224h74q0-244-249-373h-25l25 124v100q-124 17-124 74v25l50 75q-199 0-199 50v49zM362 243l50-50-75-100-25 25v25l25 25q-99 0-99 50l25 25h99zM756 66q100 100 100 242 0 141-100 241t-241 100q-142 0-242-100t-100-241q0-142 100-242t242-100q141 0 241 100z" />
<glyph unicode="&#xe900;" glyph-name="calendar" d="M853 640v171h-256v-171h-170v171h-256v-171h-171v-811h1024v811h-171zM683 725h85v-170h-85v170zM256 725h85v-170h-85v170zM939-85h-854v469h854v-469zM939 427h-854v128h86v-86h256v86h170v-86h256v86h86v-128zM213 256h86v-85h-86v85zM341 256h86v-85h-86v85zM260 256h493v-85h-493v85zM597 256h85v-85h-85v85zM725 256h86v-85h-86v85zM213 128h86v-85h-86v85zM250 128h559v-85h-559v85zM469 128h85v-85h-85v85z" />
<glyph unicode="&#xe901;" glyph-name="user1" d="M761 544l-5 5q-100 100-241 100-142 0-242-100l-5-5h-113q24 37 56 69 57 58 134 91 78 34 167 34 88 0 166-33 78-34 136-92 31-32 55-69h-108zM814 10q-58-58-135-91-78-33-167-33-88 0-166 33t-135 91q-31 31-56 68l105 2q6-7 13-14 100-100 242-100 141 0 241 100l107 4q-22-32-49-60zM856 308q0 100-50 179h95q2-4 4-9 33-78 33-166 0-89-33-166-7-15-14-29l-92 1q57 83 57 190zM120 146q-34 77-34 166 0 88 34 166l6 14h100q-53-81-53-184 0-104 53-185l-97 1q-5 11-9 22zM272 138q4 24 9 42 9 37 25 59 17 23 35 35 19 12 35 17-12 19-18 41-7 22-7 45 0 34 12 63 13 30 36 52 23 23 52 35 29 13 63 13 33 0 63-12 30-13 52-35 22-23 35-52 13-30 13-64 0-23-6-45-7-22-20-41 18-5 36-17 19-12 34-34 16-23 27-60 6-21 8-46l-51-9q-2 12-3 22-7 30-19 51-13 22-31 34t-31 23q-22-19-49-30t-58-11-58 11-48 30q-15-11-33-23t-30-33q-12-22-18-52-3-9-4-19zM428 379q0-17 7-32 7-16 18-27t26-17q16-7 33-7 18 0 33 6 15 7 26 18 12 11 18 26 7 16 7 33 0 18-6 33-7 15-18 26-12 12-27 18-15 7-33 7-17 0-32-6-16-7-27-18-11-12-18-27t-7-33z" />
<glyph unicode="&#xe902;" glyph-name="check" d="M937 572l-68 68q-10 10-23 10t-23-10l-409-409-195 196q-10 9-23 9t-23-9l-68-68q-9-10-9-23t9-23l286-287q9-10 22.5-10t22.5 10l501 500q9 10 9 23.5t-9 22.5v0z" />
<glyph unicode="&#xe903;" glyph-name="cancel" d="M636 333l195-195q9-10 9-23.5t-9-22.5l-69-69q-9-9-22.5-9t-23.5 9l-195 195-195-195q-10-9-23-9t-23 9l-69 69q-9 9-9 22.5t9 23.5l195 195-195 195q-9 10-9 23t9 23l69 69q10 9 23 9t23-9l195-195 195 195q10 9 23 9t23-9l69-69q9-10 9-23t-9-23l-195-195z" />
<glyph unicode="&#xe904;" glyph-name="file-text1" d="M760-52q33 0 56.5 23.5t23.5 56.5v635l-64 7v-642q0-7-4.5-11.5t-11.5-4.5h-419l11-64h408zM144 12q-7 0-11.5 4.5t-4.5 11.5v724q0 7 4.5 11.5t11.5 4.5h632v-98l64-7v108q0 25-7 41t-53 20h-636q-33 0-56.5-23.5t-23.5-56.5v-724q0-33 23.5-56.5t56.5-23.5h208l-11 64h-197zM616 140h-328q-13 0-22.5 9.5t-9.5 22.5 9.5 22.5 22.5 9.5h328q13 0 22.5-9.5t9.5-22.5-9.5-22.5-22.5-9.5zM616 268h-328q-13 0-22.5 9.5t-9.5 22.5 9.5 22.5 22.5 9.5h328q13 0 22.5-9.5t9.5-22.5-9.5-22.5-22.5-9.5zM616 396h-328q-13 0-22.5 9.5t-9.5 22.5 9.5 22.5 22.5 9.5h328q13 0 22.5-9.5t9.5-22.5-9.5-22.5-22.5-9.5zM432 526h-156q-8 0-14 9.5t-6 22.5 6 22.5 14 9.5h156q8 0 14-9.5t6-22.5-6-22.5-14-9.5zM891-150q33 0 56.5 23.5t23.5 56.5v725l-64 7v-732q0-7-4.5-11.5t-11.5-4.5h-449l11-64h438z" />
<glyph unicode="&#xe905;" glyph-name="user2" horiz-adv-x="878" d="M732-150q-12 138-41 249l-111 66 60 55 115-61q34-143 63-378h-191l-11 69h116zM493-219v69h123l11-69h-134zM560 322q28 28 44 65.5t16 79.5q0 43-16 80.5t-44 65.5-66 44q-2 1-3 1l-12 77q21-5 42-14 50-23 87-60t58.5-87 21.5-107q0-40-10.5-77t-31.5-68q-16-34-51-61-18-16-38-28l-12 75q8 7 15 14zM414 673q-43 0-80.5-16t-65-44-44-65.5-16.5-80.5q0-42 16.5-79.5t44-65.5 65-44 80.5-16q42 0 80 16 28 12 51 30l12-75q-21-13-45-22-46-19-98-19-51 0-97.5 18.5t-82.5 50.5q-37 23-53 61-19 31-30.5 68t-11.5 77q0 57 21.5 107t59 87 87.5 59.5 107 22.5q33 0 65-8l12-77q-37 15-77 15zM732-150q-12 138-41 249l-111 66 60 55 115-61q34-143 63-378h-191l-11 69h116zM493-219v69h123l11-69h-134zM546-219h-513q29 235 63 378l115 61 60-55-111-66q-29-111-41-249h427v-69zM700 382q28 28 44 65.5t16 79.5q0 43-16 80.5t-44 65.5-66 44q-2 1-3 1l-12 77q21-5 42-14 50-23 87-60t58.5-87 21.5-107q0-40-10.5-77t-31.5-68q-16-34-51-61-18-16-38-28l-12 75q8 7 15 14zM872-90q-12 138-41 249l-111 66 60 55 115-61q34-143 63-378h-129l-14 69h57z" />
<glyph unicode="&#xe906;" glyph-name="web-vip" horiz-adv-x="878" d="M125 570v-497h-92v601h452l-2-104h-358zM854 674v-601h-92v497h-279l2 104h369zM33 4h826v-223h-826v223zM106-69v-77h679v77h-679zM681 518v-443h-92v339h-279l2 104h369zM560 518l1-104h-279v-339h-92v443h370z" />
<glyph unicode="&#xe907;" glyph-name="loadmore" d="M938 312q0-89-33.5-166.5t-91-135.5-135-91-166.5-33q-88 0-166 33t-135.5 91-91 135.5-33.5 166.5q0 88 33.5 165.5t91 135.5 135 91.5 166.5 33.5q88 0 166-33 28-12 53-27l-53-69q-73 40-163 40-142 0-242-100t-100-241q0-142 100-242t242-100q141 0 241 100t100 242q0 48-12 91l80 23q14-53 14-110z" />
<glyph unicode="&#xe908;" glyph-name="location" d="M512 264q79 0 135.5 56.5t56.5 135.5q0 80-56.5 136t-135.5 56-135.5-56-56.5-136q0-79 56.5-135.5t135.5-56.5zM514 589q55 0 94.5-39.5t39.5-94.5q0-56-39.5-95.5t-94.5-39.5q-56 0-95.5 39.5t-39.5 95.5q0 55 39.5 94.5t95.5 39.5zM237 262l-12 28q-33 80-33 158 0 66 25 124.5t68.5 102 102 68.5 124.5 25 124.5-25 102-68.5 68.5-102 25-124.5q0-78-33-158-7-17-15-34l70-1q5 13 10 25 32 84 32 168 0 80-30 150t-82.5 122-122.5 82-149 30-149-30-122.5-82-82.5-122-30-150q0-84 32-168 3-9 7-18h70zM203 185q18-34 39-68 49-79 107.5-151t110.5-132q0-1 15-13.5t36-12.5h2q21 0 36 12.5t15 13.5q53 60 111 132t108 151q21 33 38 66l-74 1q-14-25-29-49-48-75-103-141.5t-99-117.5l-2-2t-3-1l-4 4q-44 50-98.5 116.5t-102.5 141.5l-30 50h-73z" />
<glyph unicode="&#xe909;" glyph-name="pen2" d="M96 164l53-35-35-156 156 26 45-53-264-37zM800 432l-56-64-237 246 59 59 1-1q42 35 101 38 69 3 120-44.5t54-116.5q2-67-42-117zM751 485q20 26 18 60-1 39-28.5 65t-67.5 24q-28-1-50-17zM596 318l44-49-273-288-48 46zM416 515l45-49-286-302-48 46zM344 65l-51-42-121 146 52 42zM700 332l-51-42-198 268 52 42z" />
<glyph unicode="&#xe933;" glyph-name="edit-empty" horiz-adv-x="921" d="M857 709l46-45v-13l-562-585h-13l-42 52zM164 632h438l26-25-26-52h-412q-79 1-79-29v-570q13-39 79-39h515q59 0 71 38v425l51 28 27-27v-397q0-145-120-145h-582q-120 0-120 144v542q0 107 132 107v0zM601 556q-15 0-26.5 11t-11.5 27q0 15 11.5 26.5t26.5 11.5q16 0 27-11.5t11-26.5q0-16-11-27t-27-11zM815 338q-15 0-26.5 11t-11.5 27q0 15 11.5 26.5t26.5 11.5q16 0 27-11.5t11-26.5q0-16-11-27t-27-11zM815 338q-15 0-26.5 11t-11.5 27q0 15 11.5 26.5t26.5 11.5q16 0 27-11.5t11-26.5q0-16-11-27t-27-11zM319 61q-15 0-26.5 11t-11.5 27q0 15 11.5 26.5t26.5 11.5q16 0 27-11.5t11-26.5q0-16-11-27t-27-11zM875 636q-15 0-26.5 11t-11.5 27q0 15 11.5 26.5t26.5 11.5q16 0 27-11.5t11-26.5q0-16-11-27t-27-11z" />
<glyph unicode="&#xe94d;" glyph-name="tie" d="M541 545l40 190h-203l41-190h122zM378 510l-94-429 203-169 188 169-102 429-60-9 60-350-92-83-99 83 61 349zM463 605l-13 63h67l-13-63h-41zM519 379l14-37-97-32-18 44zM519 318l14-37-97-32-18 44zM520 262l14-37-97-32-18 44z" />
<glyph unicode="&#xe94e;" glyph-name="headphones" d="M768-64v64h-1q0 4 0.5 8t0.5 8v352q0 56-21.5 105.5t-58.5 86.5-86.5 58.5-105.5 21.5-105.5-21.5-86.5-58.5-58.5-86.5-21.5-105.5v-352q0-4 0.5-8t0.5-8h-1v-64l-25 3t-55 20-55 52.5-25 100.5q0 74 31.5 110t64.5 51v95q0 70 26.5 131t72 106.5 106.5 72 131 26.5 131-26.5 106.5-72 72-106.5 26.5-131v-95q33-15 64.5-51t31.5-110q0-65-25-100.5t-55-52.5-55-20zM602-99q-14 0-24-9.5t-10-23.5 10-24 24-10 23.5 10 9.5 24-9.5 23.5-23.5 9.5zM680-153q-6-20-21-36-25-25-60-25t-59.5 25-24.5 59q0 35 24.5 59.5t59.5 24.5 60-24q21-22 24-51h135q1 14 5 25 4 13 10 13 5 0 9.5-13t4.5-32-13-24-14-1h-140z" />
<glyph unicode="&#xe950;" glyph-name="microphone" d="M496 197l-181 181-38-46.5t-83.5-102-83.5-102.5l-15-18 131-135zM330 268l55-60-154-146-39 42zM71 62q0-115 115-115l-57-57h-58l-57 57v58zM506 564q53 66 128 66 33 0 61-12l5-62q-30 14-66 14-66 0-115-52l-22 34q4 6 9 12zM872 499q0-106-75.5-181.5t-181.5-75.5q-107 0-182 75.5t-75 181.5q0 107 75 182t182 75q106 0 181.5-75t75.5-182zM618 658q-67 0-114.5-47.5t-47.5-114.5q0-68 47.5-115.5t114.5-47.5q68 0 115.5 47.5t47.5 115.5q0 67-47.5 114.5t-115.5 47.5zM319 454l27-117-59-14-28 117zM458 225l117-29-15-60-117 29zM319 454l27-117-59-14-28 117zM458 225l117-29-15-60-117 29z" />
<glyph unicode="&#xe95b;" glyph-name="play_work" d="M576 21v86q71 0 120.5 49.5t49.5 120.5q0 70-49.5 120t-120.5 50v86q54 0 100.5-20t81-54.5 54.5-81.5 20-100-20-100-54.5-81.5-81-54.5-100.5-20zM192 235v84h238v150l192-192-192-192v150h-238z" />
<glyph unicode="&#xe95e;" glyph-name="stack" d="M1024 512l-512 256-512-256 512-256zM512 683l342-171-342-171-342 171zM921 371l103-51-512-256-512 256 103 51 409-204zM921 179l103-51-512-256-512 256 103 51 409-204z" />
<glyph unicode="&#xe960;" glyph-name="pen" d="M748 226q-50-66-62-68-178-80-419-144l186 186q9-4 19.5-6.5t21.5-2.5q40 0 68 28t28 68-28 68-68 28-68-28-28-68q0-11 2.5-21.5t6.5-19.5l-199-199q40 259 118 491 3 12 57 34 50 20 176 17l-5 109q-152 0-217-25-78-30-82-47-122-363-178-772 404 100 691 229 17 4 88 98 54 72 45 175l-121-20q2-64-32-110zM537 287q0-17-12.5-29.5t-30.5-12.5q-17 0-29.5 12.5t-12.5 29.5q0 18 12.5 30.5t29.5 12.5q18 0 30.5-12.5t12.5-30.5zM946 480l68 33q8 4 9.5 12t-5.5 15l-286 286q-7 7-15 5.5t-12-9.5l-36-74 67-76 134-134zM946 480q-51-41-119-41-81 0-138 57t-57 137q0 65 37 115l10 3 57-79q-8-19-8-41 0-42 29.5-72t71.5-30q22 0 41 9zM946 480q-51-41-119-41-81 0-138 57t-57 137q0 65 37 115l10 3 57-79q-8-19-8-41 0-42 29.5-72t71.5-30q22 0 41 9z" />
<glyph unicode="&#xe962;" glyph-name="file-text" d="M900 832h-756q-33 0-56.5-23.5t-23.5-56.5v-864q0-33 23.5-56.5t56.5-23.5h736q33 0 56.5 23.5t23.5 56.5v883q0 25-7 41t-53 20zM896-112q0-7-4.5-11.5t-11.5-4.5h-736q-7 0-11.5 4.5t-4.5 11.5v864q0 7 4.5 11.5t11.5 4.5h752v-880zM736 0h-448q-13 0-22.5 9.5t-9.5 22.5 9.5 22.5 22.5 9.5h448q13 0 22.5-9.5t9.5-22.5-9.5-22.5-22.5-9.5zM736 128h-448q-13 0-22.5 9.5t-9.5 22.5 9.5 22.5 22.5 9.5h448q13 0 22.5-9.5t9.5-22.5-9.5-22.5-22.5-9.5zM736 256h-448q-13 0-22.5 9.5t-9.5 22.5 9.5 22.5 22.5 9.5h448q13 0 22.5-9.5t9.5-22.5-9.5-22.5-22.5-9.5zM552 386h-276q-8 0-14 9.5t-6 22.5 6 22.5 14 9.5h276q8 0 14-9.5t6-22.5-6-22.5-14-9.5z" />
<glyph unicode="&#xe9a0;" glyph-name="glass" d="M692 695v-181q-1-205-189-208-174 0-174 208v181h363zM879 725h129l12-62-19-91-91-91-62 61 92 91v30h-61v62zM463 156l52-71 81 61 39-30v-31l-71-91v-122h193v-60h-486v60h203v122l-81 122 30 30zM360 630v7h61q0-164 92-244l-31-31h-31l-7 8q-88 88-84 260zM241 789v-273q0-312 262-312 284 3 285 312v273h-547zM155 663h-61v-30l92-91-62-61-91 91-19 91 12 62h129v-62z" />
<glyph unicode="&#xea03;" glyph-name="point-up" d="M252 370q-28-28-28-68 0-20 109-418 14-73 35-76h470q30 9 46 76l73 276q1 3 2 6.5t1 7.5v160q0 40-28 68t-188 42.5-168 12.5v279q0 40-28 68t-68 28-68-28-28-68v-445l-2 9 4-62 15-28q7-4 15.5-4t15.5 5q8 4 12 11.5t4 15.5v498q0 13 9.5 22.5t22.5 9.5 22.5-9.5 9.5-22.5v-370q0-13 9.5-22.5t22.5-9.5 22.5 9.5 9.5 22.5 288 0q13 0 22.5-9.5t9.5-22.5v-152l-84-298h-394l-120 395q-1 42 40 65l-41 51q-26-6-45-25z" />
<glyph unicode="&#xea04;" glyph-name="point-left" d="M542-20q28-28 68-28 20 0 418 109 73 14 76 35v470q-9 30-76 46l-276 73q-3 1-6.5 2t-7.5 1h-160q-40 0-68-28t-42.5-188-12.5-168h-279q-40 0-68-28t-28-68 28-68 68-28h445l-9-2 62 4 28 15q4 7 4 15.5t-5 15.5q-4 8-11.5 12t-15.5 4h-498q-13 0-22.5 9.5t-9.5 22.5 9.5 22.5 22.5 9.5h370q13 0 22.5 9.5t9.5 22.5-9.5 22.5-22.5 9.5 0 288q0 13 9.5 22.5t22.5 9.5h152l298-84v-394l-395-120q-42-1-65 40l-51-41q6-26 25-45z" />
<glyph unicode="&#xea05;" glyph-name="point-right" d="M642 660q-28 28-68 28-20 0-418-109-73-14-76-35v-470q9-30 76-46l276-73q3-1 6.5-2t7.5-1h160q40 0 68 28t42.5 188 12.5 168h279q40 0 68 28t28 68-28 68-68 28h-445l9 2-62-4-28-15q-4-7-4-15.5t5-15.5q4-8 11.5-12t15.5-4h498q13 0 22.5-9.5t9.5-22.5-9.5-22.5-22.5-9.5h-370q-13 0-22.5-9.5t-9.5-22.5 9.5-22.5 22.5-9.5 0-288q0-13-9.5-22.5t-22.5-9.5h-152l-298 84v394l395 120q42 1 65-40l51 41q-6 26-25 45z" />
<glyph unicode="&#xea06;" glyph-name="point-down" d="M297 245l41 51q-41 23-40 65l120 395h394l84-298v-152q0-13-9.5-22.5t-22.5-9.5q-288-13-288 0t-9.5 22.5-22.5 9.5-22.5-9.5-9.5-22.5v-370q0-13-9.5-22.5t-22.5-9.5-22.5 9.5-9.5 22.5v498q0 8-4 15.5t-12 11.5q-7 5-15.5 5t-15.5-4l-15-28-4-62 2 9v-445q0-40 28-68t68-28 68 28 28 68v279q8-2 168 12.5t188 42.5 28 68v160q0 4-1 7.5t-2 6.5l-73 276q-16 67-46 76h-470q-21-3-35-76-109-398-109-418 0-40 28-68 19-19 45-25z" />
<glyph unicode="&#xea82;" glyph-name="share" d="M864 128q-34 0-63.5-13t-51.5-36l-431 216q1 6 1.5 12.5t0.5 12.5-0.5 12.5-1.5 12.5l431 216q22-23 51.5-36t63.5-13q66 0 113 47t47 113-47 113-113 47-113-47-47-113q0-6 0.5-12.5t1.5-12.5l-431-216q-22 23-51.5 36t-63.5 13q-66 0-113-47t-47-113 47-113 113-47q34 0 63.5 13t51.5 36l431-216q-1-6-1.5-12.5t-0.5-12.5q0-66 47-113t113-47 113 47 47 113-47 113-113 47zM212 373q22-22 22-54 0-31-22-53t-54-22q-31 0-53 22t-22 53q0 32 22 54t53 22q32 0 54-22zM917 730q22-22 22-54 0-31-22-53t-54-22q-31 0-53 22t-22 53q0 32 22 54t53 22q32 0 54-22zM916 24q22-22 22-54 0-31-22-53t-54-22q-31 0-53 22t-22 53q0 32 22 54t53 22q32 0 54-22z" />
<glyph unicode="&#xf045;" glyph-name="share-square" horiz-adv-x="954" d="M805 91q0-68-48.5-116t-116.5-48h-475q-69 0-117 48t-48 116v476q0 68 48 116t117 48h145q8 0 13.5-5t5.5-13q0-7-4.5-12t-10.5-6q-22-7-41-16t-35-18q-2-1-4.5-2t-4.5-1h-64q-38 0-65-26.5t-27-64.5v-476q0-37 27-64t65-27h475q38 0 64.5 27t26.5 64v123q0 5 3 9.5t8 6.5q8 4 16 9.5t15 11.5q3 4 8.5 5.5t11.5-0.5q5-2 8.5-6.5t3.5-10.5v-148zM727 686v-111h-156q-140-2-210-24t-109-83.5-29-174.5q10-82 61-179 1-6-7.5-21.5t-13.5-18.5q-2 0-3.5-0.5t-3.5-0.5q-4 0-8 2t-7 6q-1 2-16 25t-32.5 58-32 78.5-14.5 86.5q0 58 13.5 116.5t57.5 105.5 127 77 223 30h91v110q0 11 6.5 20t16.5 14q3 1 6.5 2t7.5 1q7 0 13.5-3t12.5-8l219-220q11-10 11-25t-11-26l-219-220q-6-5-12.5-7.5t-13.5-2.5q-4 0-7.5 0.5t-6.5 1.5q-10 5-16.5 14t-6.5 20v110h-181q-38 0-36.5 38.5t30.5 36.5l254 1v-112l140 143z" />
<glyph unicode="&#xf060;" glyph-name="arrow-left" horiz-adv-x="914" d="M878 293v-74q0-29-18-51t-49-22h-402l167-168q10-10 16-23.5t6-27.5q0-15-6-28.5t-16-23.5l-43-43q-10-10-23.5-15.5t-27.5-5.5q-15 0-28.5 5.5t-23.5 15.5l-372 373q-10 9-15.5 22.5t-5.5 28.5 5.5 28.5 15.5 23.5l372 371q10 11 23.5 16.5t28.5 5.5q14 0 27.5-5.5t23.5-16.5l43-42q10-10 16-23.5t6-28.5q0-14-6-28t-16-24l-167-167h402q31 0 49-22t18-51v0z" />
<glyph unicode="&#xf061;" glyph-name="arrow-right" horiz-adv-x="841" d="M841 256q0-15-5.5-28.5t-15.5-23.5l-372-372q-10-10-23.5-15.5t-28.5-5.5-28 5.5-23 15.5l-43 43q-11 10-16.5 23.5t-5.5 28.5q0 14 5.5 28t16.5 24l167 167h-402q-31 0-49 22t-18 51v74q0 29 18 51t49 22h402l-167 168q-11 10-16.5 23.5t-5.5 27.5q0 15 5.5 28.5t16.5 23.5l43 42q10 11 23 16.5t28 5.5 28.5-5.5 23.5-16.5l372-372q10-9 15.5-22.5t5.5-28.5v0z" />
<glyph unicode="&#xf062;" glyph-name="arrow-up" horiz-adv-x="951" d="M921 250q0-15-6-28t-16-24l-42-43q-11-10-24.5-15.5t-27.5-5.5q-15 0-28.5 5.5t-23.5 15.5l-168 168v-402q0-31-22-49t-51-18h-73q-29 0-51 18t-22 49v402l-168-168q-10-10-23.5-15.5t-28.5-5.5q-14 0-27.5 5.5t-23.5 15.5l-43 43q-10 11-16 24t-6 28q0 14 6 27.5t16 24.5l372 372q10 10 23.5 15.5t27.5 5.5q15 0 28.5-5.5t23.5-15.5l372-372q10-11 16-24.5t6-27.5v0z" />
<glyph unicode="&#xf063;" glyph-name="arrow-down" horiz-adv-x="951" d="M921 329q0-14-6-27.5t-16-23.5l-372-373q-10-10-23.5-15.5t-28.5-5.5q-14 0-27.5 5.5t-23.5 15.5l-372 373q-10 10-16 23.5t-6 27.5q0 15 6 28.5t16 23.5l42 43q11 10 24.5 15.5t27.5 5.5q15 0 28.5-5.5t23.5-15.5l168-168v402q0 30 21.5 51.5t51.5 21.5h73q30 0 51.5-21.5t21.5-51.5v-402l168 168q10 10 23.5 15.5t28.5 5.5q14 0 27.5-5.5t24.5-15.5l42-43q10-10 16-23.5t6-28.5v0z" />
<glyph unicode="&#xf08e;" glyph-name="sms2" d="M852 617q0 38-26.5 65t-64.5 27h-422v1h-33q-8 0-13 5t-5 13v36q0 8 5 13.5t13 5.5h86v-1h369q68 0 116-48t48-117v-105l-73-4v109zM925 426h1v-89q0-8-5-13t-13-5h-36q-8 0-13.5 5t-5.5 13v35h-1v136l73 4v-86zM414 68l-73-84 1-1-54-70q-5-7-12-8t-13 4l-29 22q-6 5-7.5 12t3.5 14l21 28h-1l123 149h1q0 1 1 2 5 5 13 5h252q38 0 65 26.5t27 64.5v255q0 38-26.5 65t-64.5 27h-476q-37 0-64-27t-27-65v-255q0-38 27-64.5t64-26.5h73q8 0 13.5-5.5t5.5-13.5v-36q0-8-5.5-13.5t-13.5-5.5h-73q-68 0-116 48.5t-48 116.5v255q0 69 48 117t116 48h476q68 0 116-48t48-117v-255q0-68-48-116t-117-48h-226z" />
<glyph unicode="&#xf0d7;" glyph-name="caret-down" horiz-adv-x="585" d="M585 402q0-7-3-13.5t-8-11.5l-256-256q-5-6-11.5-8.5t-13.5-2.5q-8 0-14.5 2.5t-11.5 8.5l-256 256q-5 5-8 11.5t-3 13.5q0 15 11 26t26 11h512q15 0 25.5-11t10.5-26v0z" />
<glyph unicode="&#xf0d8;" glyph-name="caret-up" horiz-adv-x="585" d="M585 110q0-15-10.5-26t-25.5-11h-512q-15 0-26 11t-11 26q0 7 3 13.5t8 11.5l256 256q5 6 11.5 8.5t14.5 2.5q7 0 13.5-2.5t11.5-8.5l256-256q5-5 8-11.5t3-13.5v0z" />
<glyph unicode="&#xf0d9;" glyph-name="caret-left" horiz-adv-x="402" d="M366 549v-512q0-15-11-26t-26-11q-7 0-13.5 3t-12.5 8l-256 256q-5 5-7.5 11.5t-2.5 14.5q0 7 2.5 13.5t7.5 11.5l256 256q6 5 12.5 8t13.5 3q15 0 26-10.5t11-25.5v0z" />
<glyph unicode="&#xf0da;" glyph-name="caret-right" horiz-adv-x="329" d="M329 293q0-8-3-14.5t-8-11.5l-256-256q-5-5-11.5-8t-13.5-3q-15 0-26 11t-11 26v512q0 15 11 25.5t26 10.5q7 0 13.5-3t11.5-8l256-256q5-5 8-11.5t3-13.5v0z" />
<glyph unicode="&#xf2c0;" glyph-name="user" horiz-adv-x="878" d="M523-146h254q-12 147-43 266l-118 70 63 58 123-64q36-153 67-403h-346v73zM631 292q-39-34-88-53.5t-104-19.5-104.5 19.5-87.5 53.5q-39 25-56 65-21 33-33 72.5t-12 82.5q0 60 23 113.5t63 93 93 63 114 23.5q60 0 113.5-23.5t93-63 62.5-93 23-113.5q0-43-11.5-82.5t-33.5-72.5q-17-36-55-65zM219 512q0-45 17.5-85t47-70 69.5-47 86-17q45 0 85 17t70 47 47 70 17 85-17 85-47 70-70 47-85 17q-46 0-86-17t-69.5-47-47-70-17.5-85zM523-146h254q-12 147-43 266l-118 70 63 58 123-64q36-153 67-403h-346v73zM579-219h-546q31 250 67 403l123 64 63-58-118-70q-31-119-43-266h454v-73z" />
</font>
</defs>
</svg>
